<svg id="Layer_1" data-name="Layer 1" xmlns="http://www.w3.org/2000/svg" viewBox="0 0 100 100"><defs><style>.cls-1{fill:#fff;}</style></defs><path d="M95,60.86a44.84,44.84,0,0,1-3.78,17.36.75.75,0,0,1-1,.37c-1.27-.59-2.32-1.46-3.8-1.64a10.39,10.39,0,0,0-5.07.83c-2.37,1-4.52,2.41-6.93,3.24a3.62,3.62,0,0,1-3.54-.26c-1.12-.84-1.86-2.05-2.92-3-5.85-5-13.47.85-18.65,3.94a20.32,20.32,0,0,1-7.6,3,8.4,8.4,0,0,1-4.79-.43c-1.48-.75-2.77-1.81-4.22-2.62-4.06-2.29-8.9-2.45-13.44-2.1a18.14,18.14,0,0,0-7.46,2.74.74.74,0,0,1-1.06-.24A44.76,44.76,0,0,1,5,60.11q0-1.87.15-3.72A45,45,0,0,1,49.46,15.11,45.18,45.18,0,0,1,94.77,55.55c0,.25,0,.51.07.77A42.69,42.69,0,0,1,95,60.86Z"/><path class="cls-1" d="M68,34.75A4.31,4.31,0,0,0,66,35l-.43.17a20.63,20.63,0,0,0-2,.91A68.36,68.36,0,0,0,56.07,41a60.76,60.76,0,0,0-6.9,6q-1.77,1.84-4.88,5.34c-2.07,2.34-3.87,4.37-5.38,6.11-1.12,1.28-1.71,1.94-1.77,2,0-.13.12-.32.2-.56l.27-.75c.1-.29.17-.49.22-.6.24-.77.48-1.53.72-2.27.49-1.45,1-2.91,1.43-4.39.18-.6.33-1.22.46-1.85l0-.16a1.16,1.16,0,0,0-.26-1.11,1,1,0,0,0-.93-.24,2.54,2.54,0,0,0-1.26.85l-.24.3c-.61.72-1.21,1.45-1.79,2.19-.87,1.12-1.73,2.25-2.59,3.39-.24.32-.42.49-.54.5s-.07-.2.14-.64c.68-1.4,1.32-2.82,1.93-4.29s1.13-3,1.6-4.53a13.73,13.73,0,0,0,.55-3.37,5,5,0,0,0-1.39-4,6,6,0,0,0-3.92-1.37,19,19,0,0,0-5.58.77,39.25,39.25,0,0,0-6.33,2.39,51.75,51.75,0,0,0-6.22,3.5,36.49,36.49,0,0,0-5.22,4.11,18.73,18.73,0,0,0-2.54,2.91,44.58,44.58,0,0,0-.74,5.2.14.14,0,0,0,0-.07,5.65,5.65,0,0,1,.48-2,17.76,17.76,0,0,1,2-3.59,20,20,0,0,1,3.09-3.16,44.58,44.58,0,0,1,4.52-3.33,55.9,55.9,0,0,1,5.29-3A38.26,38.26,0,0,1,25.87,39a17.19,17.19,0,0,1,4.76-.88,5.58,5.58,0,0,1,3.45.9,4,4,0,0,1,1.46,3.14,9.92,9.92,0,0,1-.26,2.63,29.44,29.44,0,0,1-1.44,4.52A88.17,88.17,0,0,1,28.72,60q-1.84,3.3-3.73,6.57c-.62,1.1-1.25,2.21-1.89,3.31-.22.38-.43.79-.62,1.21a.52.52,0,0,0,.06.45.59.59,0,0,0,.37.29.91.91,0,0,0,.85-.19,3,3,0,0,0,.58-.74q3.09-4.71,6.33-9.26t6.54-9c.27-.34.55-.68.84-1a.23.23,0,0,1,.24-.09,1.28,1.28,0,0,1,.24.11s0,0,0,0v0l0,0,0,0a0,0,0,0,1,0,0,8.48,8.48,0,0,0-.74,1.94c-.08.27-.16.55-.26.84q-1,2.82-1.87,5.71A13,13,0,0,0,35.25,62a.82.82,0,0,0,.15.62.74.74,0,0,0,.52.31,1.34,1.34,0,0,0,1.27-.43,11.18,11.18,0,0,0,1-1.08c1.46-1.85,3-3.64,4.53-5.39s3.12-3.48,4.7-5.19l.22-.24A69.12,69.12,0,0,1,62.8,38.06q1.56-.93,3.15-1.71a6.25,6.25,0,0,1,1.44-.48q.85-.13.93,1A5.91,5.91,0,0,1,68,38.74a27.27,27.27,0,0,1-1.88,4.82q-2.85,5.82-5.84,11.53T54,66.28c-1,1.63-2,3.27-3,4.9-.55.88-1.08,1.75-1.62,2.63a9.86,9.86,0,0,0-.65,1.2.4.4,0,0,0,0,.23.42.42,0,0,0,.08.21.45.45,0,0,0,.17.13.58.58,0,0,0,.21,0,.5.5,0,0,0,.35-.13,1.74,1.74,0,0,0,.23-.33.29.29,0,0,0,0-.08c.29-.42.58-.85.86-1.28C51.84,72,53,70.17,54.21,68.33s2.34-3.7,3.47-5.6q5.22-8.82,9.76-18.27c.59-1.27,1.14-2.57,1.65-3.89l.15-.39a9.38,9.38,0,0,0,.66-2.82Q70.08,35,68,34.75Z"/><path class="cls-1" d="M70.38,55.81c-.13-.08-.29,0-.47.12l-.15.15a12.92,12.92,0,0,1-.91.92,3,3,0,0,1-1.07.69.91.91,0,0,1-.8,0c-.18-.12-.17-.52,0-1.21,0-.16.1-.32.14-.48.08-.43-.12-.64-.6-.64a1.28,1.28,0,0,0-.84.4c-.5.46-1,.92-1.55,1.36l0,0-.4.3a1.94,1.94,0,0,1-.48.27.68.68,0,0,1-.44,0,.17.17,0,0,1-.05-.15.34.34,0,0,1,.05-.17A6.2,6.2,0,0,1,65.3,54.7a2.51,2.51,0,0,1,.68-.28c.22-.05.43.07.64.36a.06.06,0,0,0,.06,0l.06,0a.52.52,0,0,0,.55-.1.4.4,0,0,0,.12-.43.9.9,0,0,0-.89-.83,2.4,2.4,0,0,0-1.41.26,8.55,8.55,0,0,0-2.3,1.53,6,6,0,0,0-1.36,2,1.14,1.14,0,0,0-.05,1.1,1.23,1.23,0,0,0,1,.45,3.19,3.19,0,0,0,1.86-.46,11.16,11.16,0,0,0,1.41-1.12c0,1.36.92,1.73,2.65,1.1a2.89,2.89,0,0,0,.6-.33,0,0,0,0,1,0,0,4.27,4.27,0,0,0,.71-.56.6.6,0,0,0,.08-.08,7.11,7.11,0,0,0,.67-.77C70.57,56.14,70.55,55.91,70.38,55.81Z"/><path class="cls-1" d="M75.87,55.83c0-.07-.15-.1-.31-.07a1.24,1.24,0,0,0-.59.4l-.12.11h0l-.71.62A7.53,7.53,0,0,1,72.28,58c-.81.36-1.27.19-1.38-.52s1.55-5.13,5-13.27a.48.48,0,0,0-.08-.42.71.71,0,0,0-.24-.17.52.52,0,0,0-.62.12,1.34,1.34,0,0,0-.29.45q-1.17,2.93-3.16,7.5a31.65,31.65,0,0,0-1.58,4.25,6.69,6.69,0,0,0-.24,1.44,2.31,2.31,0,0,0,0,.38c.18,1,.68,1.45,1.52,1.37a5.13,5.13,0,0,0,2.44-1c.27-.19.52-.39.77-.6a11.25,11.25,0,0,0,1.37-1.39Q75.94,56,75.87,55.83Z"/><path class="cls-1" d="M79.18,56.12l-.15.13a6.07,6.07,0,0,1-2.26,1.4c-.78.26-1.16.24-1.16,0a4.83,4.83,0,0,1,.53-1.46l.26-.51q.19-.39.36-.78a.32.32,0,0,0-.14-.34.48.48,0,0,0-.42-.09,1,1,0,0,0-.5.34,10.76,10.76,0,0,0-.85,1.51h0a7.76,7.76,0,0,0-.34.84,4.34,4.34,0,0,0-.1.43c-.09.55,0,.92.32,1.11a2.07,2.07,0,0,0,1.55.15A4.45,4.45,0,0,0,78.07,58c.17-.12.33-.24.48-.37a7.65,7.65,0,0,0,.9-.9,2.35,2.35,0,0,0,.63-1.1C80.11,55.4,79.81,55.55,79.18,56.12Zm-.86-4.84a.49.49,0,0,0-.38-.12.64.64,0,0,0-.42.2,6.11,6.11,0,0,0-.86,1.55c-.06.18-.06.29,0,.35a.36.36,0,0,0,.3.06,1.9,1.9,0,0,0,.36-.09.77.77,0,0,0,.22-.1,3.4,3.4,0,0,0,.86-1.48A.31.31,0,0,0,78.32,51.28Z"/><path class="cls-1" d="M85.87,43.86a.9.9,0,0,0-.33,0,2.22,2.22,0,0,0-.37.09.45.45,0,0,0-.24.15l-.5,1c-.13.29-.26.57-.4.84-.34.68-.68,1.39-1,2.13-.83,1.63-1.65,3.32-2.48,5-.48,1-.93,2-1.34,3-.22.52-.43,1-.63,1.54-.06.15-.12.3-.17.45a.41.41,0,0,0,.15.48.56.56,0,0,0,.17.06.36.36,0,0,0,.21,0,.77.77,0,0,0,.26-.22l.18-.17a.31.31,0,0,1,.16-.07,2.05,2.05,0,0,0,1.42.78,3,3,0,0,0,1.69-.44,6.13,6.13,0,0,0,1.69-2.15,4.4,4.4,0,0,0,.46-2.59,1.15,1.15,0,0,0-1.27-1.14,2.82,2.82,0,0,0-.88.21,2.26,2.26,0,0,0-1,.67c.27-.59.59-1.23,1-1.94l.84-1.69c.07-.2.16-.39.25-.6.63-1.37,1.24-2.75,1.84-4.14a1.18,1.18,0,0,0,.08-.16A4.64,4.64,0,0,0,86,44C86,43.93,86,43.89,85.87,43.86ZM82.21,54c.55-.38.94-.52,1.15-.45s.3.27.26.61a4.88,4.88,0,0,1-.28,1.17,6.69,6.69,0,0,1-.78,1.44,7.4,7.4,0,0,1-1,1.12c-.32.26-.6.31-.84.16a1,1,0,0,1-.44-.78,2.29,2.29,0,0,1,.43-1.82A6.05,6.05,0,0,1,82.21,54Z"/><path class="cls-1" d="M94.77,55.55a.45.45,0,0,0-.26.13c-1.93,1.43-3.09,2.13-3.49,2.13-.16,0-.24-.11-.24-.35a12.21,12.21,0,0,1,.52-1.8,7.73,7.73,0,0,0,.38-1.31c0-.31-.2-.46-.62-.46a1.2,1.2,0,0,0-.86.53Q86.84,58.36,86,58.37q-.21,0-.21-.24a2,2,0,0,1,.17-.67c.73-1.87,1.11-2.82,1.14-2.87a1.29,1.29,0,0,0,.12-.48c0-.36-.23-.55-.68-.55a.26.26,0,0,0-.25.14,12.87,12.87,0,0,0-1.7,4.65c0,.71.34,1.07,1,1.07a2.69,2.69,0,0,0,1.73-.64c.52-.44,1.18-1,2-1.71,0,1,.37,1.59,1.12,1.76h.15a3.4,3.4,0,0,0,1.74-.63,24,24,0,0,0,2.46-1.88C94.82,56.06,94.79,55.8,94.77,55.55Z"/><path class="cls-1" d="M63.09,62.17v.11h.44v2.07L62.2,62.17H61.13v.11h.44v2.89h-.44v.11h1v-.11h-.44V62.28h0a.2.2,0,0,0,0,.13l1.78,2.93h.13V62.28h.44v-.11Z"/><path class="cls-1" d="M66.92,65.17l-1.13-3.06h-.13l-1,3.06h-.47v.11h1.07v-.11H64.8l.33-1H66l.37,1h-.54v.11h1.45v-.11Zm-1.76-1.11.39-1.18L66,64.06Z"/><path class="cls-1" d="M68.94,62.28v-.11H67.65v.11h.42v2.89h-.42v.11h1.29v-.11h-.42V62.28Z"/><path class="cls-1" d="M71.79,64.11a2.29,2.29,0,0,1-.08.41,1.67,1.67,0,0,1-.18.35.61.61,0,0,1-.28.23.86.86,0,0,1-.38.07h-.65V62.28h.42v-.11H69.36v.11h.41v2.89h-.41v.11h2.52l.05-1.17Z"/><path class="cls-1" d="M75.92,64.11a2.29,2.29,0,0,1-.08.41,1.67,1.67,0,0,1-.18.35.61.61,0,0,1-.28.23.86.86,0,0,1-.38.07h-.64V62.28h.41v-.11H73.49v.11h.41v2.89h-.41v.11H76l0-1.17Z"/><path class="cls-1" d="M79.43,63.18a1.47,1.47,0,0,0-.23-.45,1.33,1.33,0,0,0-.33-.34,1.59,1.59,0,0,0-.41-.21,1.31,1.31,0,0,0-.44-.07,1.41,1.41,0,0,0-.45.07,1.59,1.59,0,0,0-.41.21,1.78,1.78,0,0,0-.33.34,1.45,1.45,0,0,0-.22.45,1.69,1.69,0,0,0-.08.56,1.85,1.85,0,0,0,.12.67,1.47,1.47,0,0,0,.34.51,1.6,1.6,0,0,0,.47.31,1.55,1.55,0,0,0,.56.11,1.5,1.5,0,0,0,.55-.11,1.38,1.38,0,0,0,.47-.31,1.34,1.34,0,0,0,.34-.51,1.67,1.67,0,0,0,.13-.67A2,2,0,0,0,79.43,63.18Zm-.68,1.67a.85.85,0,0,1-.73.38.83.83,0,0,1-.73-.38A2,2,0,0,1,77,63.74a2.05,2.05,0,0,1,.26-1.13.82.82,0,0,1,.73-.39.84.84,0,0,1,.73.39A2.06,2.06,0,0,1,79,63.74,2,2,0,0,1,78.75,64.85Z"/><path class="cls-1" d="M81.93,62.17v.11h.44v2.1a.79.79,0,0,1-.24.63,1,1,0,0,1-.66.22,1.12,1.12,0,0,1-.27,0,.88.88,0,0,1-.22-.1.5.5,0,0,1-.15-.2.79.79,0,0,1-.06-.32v-2.3h.42v-.11H79.91v.11h.42v2c0,.68.37,1,1.14,1a1.14,1.14,0,0,0,.76-.24.86.86,0,0,0,.28-.7V62.28H83v-.11Z"/><path class="cls-1" d="M85.24,62.17v.11h.44v2.07l-1.32-2.18H83.28v.11h.44v2.89h-.44v.11h1v-.11h-.44V62.28h0a.28.28,0,0,0,0,.13l1.78,2.93h.13V62.28h.44v-.11Z"/><path class="cls-1" d="M88.1,64.06v.11h.63v.32a.77.77,0,0,1-.18.52.61.61,0,0,1-.51.22.83.83,0,0,1-.73-.38,2,2,0,0,1-.26-1.11,2.05,2.05,0,0,1,.26-1.13.83.83,0,0,1,.73-.39,1.27,1.27,0,0,1,.28,0l.21.09a.87.87,0,0,1,.14.12l.1.12a1.53,1.53,0,0,1,.24.55h.09v-1H89a.35.35,0,0,1-.07.11.12.12,0,0,1-.1,0,.59.59,0,0,1-.19,0,1.74,1.74,0,0,0-.61-.1,1.41,1.41,0,0,0-.45.07,1.53,1.53,0,0,0-.4.21,1.57,1.57,0,0,0-.34.34,1.45,1.45,0,0,0-.22.45,1.69,1.69,0,0,0-.08.56,1.85,1.85,0,0,0,.12.67,1.47,1.47,0,0,0,.34.51,1.52,1.52,0,0,0,.48.31,1.46,1.46,0,0,0,.55.11,1.77,1.77,0,0,0,.64-.14.64.64,0,0,1,.24-.07.11.11,0,0,1,.1,0,.23.23,0,0,1,.07.11h.09V64.17h.49v-.11Z"/><path class="cls-1" d="M92.4,64.31a2.7,2.7,0,0,1-.08.31.79.79,0,0,1-.84.55h-.73V63.71h.4a.44.44,0,0,1,.37.23.71.71,0,0,1,.08.21,1.3,1.3,0,0,1,0,.19h.11V63h-.11a1.64,1.64,0,0,1,0,.19.64.64,0,0,1-.08.2.44.44,0,0,1-.37.24h-.4V62.28h.78a.59.59,0,0,1,.5.23,1.62,1.62,0,0,1,.1.18l.06.15,0,.14h.12l0-.81H89.88v.11h.41v2.89h-.41v.11H92.5v-1Z"/></svg>